<svg width="25" height="19" viewBox="0 0 25 19" fill="none" xmlns="http://www.w3.org/2000/svg">
<path d="M0 2.64376H22.3958C23.8341 2.64376 25 3.63014 25 4.84689V15.8626C25 17.0793 23.8341 18.0657 22.3958 18.0657H12.5H2.60417C1.16593 18.0657 0 17.0793 0 15.8626V2.64376Z" fill="#FBBC1A"/>
<path d="M0 5.94846V14.9813C0 16.1981 1.16593 17.1844 2.60417 17.1844H22.3958C23.8341 17.1844 25 16.1981 25 14.9813V5.72815C25 4.51139 23.8341 3.52501 22.3958 3.52501H11.4583V4.62658C11.4583 5.35663 10.7588 5.94846 9.89583 5.94846H0Z" fill="url(#paint0_linear_102_14)"/>
<path d="M0 1.76251C0 0.789101 0.93274 0 2.08333 0H9.375C10.5256 0 11.4583 0.789101 11.4583 1.76251V2.64376H0V1.76251Z" fill="#FBBC1A"/>
<defs>
<linearGradient id="paint0_linear_102_14" x1="0" y1="0" x2="29.9274" y2="21.1958" gradientUnits="userSpaceOnUse">
<stop stop-color="#FFE69C"/>
<stop offset="1" stop-color="#FFC937"/>
</linearGradient>
</defs>
</svg>
