<svg width="290" height="281" viewBox="0 0 290 281" fill="none" xmlns="http://www.w3.org/2000/svg">
<rect width="290" height="280" fill="#F1EEEE"/>
<mask id="mask0_111_90" style="mask-type:alpha" maskUnits="userSpaceOnUse" x="0" y="0" width="290" height="280">
<rect width="290" height="280" fill="#F1EEEE"/>
</mask>
<g mask="url(#mask0_111_90)">
<rect x="-270.436" y="-27" width="796.349" height="501" fill="#F7DEA5"/>
<mask id="mask1_111_90" style="mask-type:alpha" maskUnits="userSpaceOnUse" x="-271" y="-27" width="797" height="501">
<rect x="-270.436" y="-27" width="796.349" height="501" fill="#D9D9D9"/>
</mask>
<g mask="url(#mask1_111_90)">
<path d="M523.337 402.49C523.337 417.943 520.362 430.087 514.982 439.576C509.611 449.047 501.772 456.002 491.816 460.973C471.795 470.969 443.303 472.898 409.633 470.861C381.708 469.171 350.51 464.779 318.036 460.207C311.42 459.276 304.752 458.337 298.047 457.412C258.49 451.955 217.729 446.99 179.524 446.99C104.157 446.99 38.2149 407.042 -8.94796 351.315C-56.1248 295.571 -84.3095 224.266 -84.3095 161.99C-84.3095 146.53 -81.3759 134.558 -76.0841 125.367C-70.8052 116.199 -63.0996 109.659 -53.2996 105.178C-33.5696 96.1545 -5.45141 95.513 27.8769 98.8632C52.8155 101.37 80.4051 106.076 109.238 110.994C118.872 112.637 128.644 114.303 138.503 115.92C177.802 122.363 218.399 127.99 256.627 127.99C332.049 127.99 398.718 165.364 446.578 218.462C494.455 271.579 523.337 340.243 523.337 402.49Z" stroke="#3D0C02" stroke-opacity="0.5" stroke-width="4"/>
<path d="M523.913 392.308C523.913 410.101 520.485 424.109 514.269 435.066C508.062 446.007 499.002 454.038 487.512 459.772C464.42 471.295 431.597 473.506 392.884 471.164C360.769 469.221 324.89 464.173 287.559 458.92C279.955 457.85 272.29 456.772 264.585 455.709C219.111 449.439 172.271 443.737 128.374 443.737C41.6218 443.737 -34.2605 397.778 -88.5178 333.7C-142.789 269.605 -175.222 187.608 -175.222 115.972C-175.222 98.1722 -171.843 84.361 -165.727 73.7441C-159.623 63.1495 -150.715 55.5954 -139.399 50.4232C-116.639 40.0195 -84.2434 39.2925 -45.9261 43.1423C-17.2461 46.0239 14.4851 51.4333 47.6342 57.0845C58.7066 58.9721 69.9372 60.8866 81.2651 62.743C126.441 70.146 173.09 76.6077 217.01 76.6077C303.816 76.6077 380.533 119.602 435.596 180.66C490.675 241.736 523.913 320.7 523.913 392.308Z" stroke="#3D0C02" stroke-opacity="0.5" stroke-width="4"/>
<path d="M523.913 382.919C523.913 402.785 520.086 418.445 513.134 430.705C506.191 442.948 496.057 451.931 483.214 458.342C457.419 471.219 420.782 473.679 377.629 471.068C341.826 468.901 301.824 463.271 260.217 457.414C251.742 456.221 243.2 455.019 234.614 453.835C183.931 446.844 131.738 440.489 82.829 440.489C-13.9463 440.489 -98.5813 389.203 -159.086 317.722C-219.604 246.225 -255.778 154.753 -255.778 74.8195C-255.778 54.9453 -252.006 39.504 -245.164 27.6226C-238.334 15.7637 -228.366 7.31092 -215.717 1.52702C-190.289 -10.1001 -154.127 -10.9029 -111.417 -6.61027C-79.4424 -3.39664 -44.0646 2.63651 -7.11553 8.93761C5.22396 11.0419 17.7387 13.1761 30.3604 15.2452C80.7101 23.4988 132.688 30.7005 181.62 30.7005C278.449 30.7005 364.014 78.6756 425.418 146.788C486.839 214.92 523.913 303.013 523.913 382.919Z" stroke="#3D0C02" stroke-opacity="0.5" stroke-width="4"/>
<path d="M535.421 373.529C535.421 395.47 531.196 412.781 523.507 426.344C515.827 439.889 504.619 449.825 490.425 456.913C461.926 471.143 421.476 473.852 373.883 470.971C334.391 468.581 290.268 462.369 244.384 455.908C235.038 454.593 225.619 453.266 216.151 451.96C160.258 444.249 102.713 437.24 48.7923 437.24C-58.0065 437.24 -151.394 380.627 -218.145 301.745C-284.91 222.846 -324.825 121.897 -324.825 33.6669C-324.825 11.7183 -320.661 -5.35299 -313.093 -18.4988C-305.537 -31.6221 -294.51 -40.9735 -280.526 -47.3691C-252.43 -60.2197 -212.502 -61.0983 -165.399 -56.3629C-130.131 -52.8172 -91.1063 -46.1603 -50.3571 -39.2092C-36.7506 -36.8882 -22.9518 -34.5344 -9.0363 -32.2526C46.4874 -23.1483 103.794 -15.2067 157.738 -15.2067C264.591 -15.2067 359.003 37.7491 426.749 112.917C494.511 188.104 535.421 285.326 535.421 373.529Z" stroke="#3D0C02" stroke-opacity="0.5" stroke-width="4"/>
<path d="M573.397 387.89C573.397 411.739 568.802 430.57 560.429 445.33C552.066 460.074 539.861 470.887 524.411 478.597C493.401 494.073 449.41 497.011 397.694 493.882C354.776 491.286 306.826 484.538 256.97 477.523C246.816 476.094 236.583 474.654 226.297 473.235C165.567 464.861 103.052 457.251 44.4772 457.251C-71.6299 457.251 -173.145 395.736 -245.697 310.044C-318.262 224.336 -361.651 114.67 -361.651 18.8065C-361.651 -5.05023 -357.122 -23.621 -348.88 -37.9299C-340.65 -52.2164 -328.639 -62.3948 -313.417 -69.3534C-282.843 -83.3299 -239.417 -84.2781 -188.236 -79.1353C-149.908 -75.284 -107.497 -68.0533 -63.2196 -60.5043C-48.4365 -57.9839 -33.4453 -55.428 -18.3285 -52.9506C41.9997 -43.0636 104.254 -34.4413 162.852 -34.4413C279.013 -34.4413 381.641 23.0973 455.275 104.756C528.926 186.433 573.397 292.055 573.397 387.89Z" stroke="#3D0C02" stroke-opacity="0.5" stroke-width="4"/>
<path d="M611.373 403.064C611.373 428.863 606.402 449.246 597.336 465.23C588.278 481.198 575.06 492.907 558.336 501.253C524.777 518.001 477.19 521.173 421.288 517.792C374.891 514.985 323.054 507.69 269.166 500.107C258.191 498.562 247.132 497.006 236.016 495.473C170.373 486.422 102.812 478.198 39.5113 478.198C-86.0467 478.198 -195.815 411.675 -274.256 319.025C-352.711 226.359 -399.627 107.785 -399.627 4.12302C-399.627 -21.6835 -394.728 -41.7864 -385.801 -57.2838C-376.888 -72.7588 -363.877 -83.782 -347.397 -91.3157C-314.308 -106.442 -267.331 -107.462 -212.008 -101.903C-170.574 -97.7393 -124.725 -89.9223 -76.8643 -81.7623C-60.8866 -79.0382 -44.6847 -76.2759 -28.348 -73.5985C36.8585 -62.9119 104.137 -53.594 167.46 -53.594C293.073 -53.594 404.043 8.62656 483.656 96.917C563.286 185.226 611.373 299.429 611.373 403.064Z" stroke="#3D0C02" stroke-opacity="0.5" stroke-width="4"/>
<path d="M668.913 416.613C668.913 444.279 663.583 466.149 653.854 483.305C644.134 500.445 629.948 513.011 612.008 521.967C576.016 539.933 524.997 543.329 465.098 539.705C415.381 536.696 359.834 528.878 302.096 520.751C290.339 519.096 278.49 517.429 266.582 515.786C196.251 506.086 123.872 497.274 56.0609 497.274C-78.5184 497.274 -196.164 425.956 -280.227 326.645C-364.305 227.318 -414.587 100.215 -414.587 -10.9143C-414.587 -38.5877 -409.335 -60.1577 -399.755 -76.793C-390.188 -93.4059 -376.224 -105.238 -358.543 -113.322C-323.053 -129.55 -272.686 -130.638 -213.41 -124.68C-169.011 -120.218 -119.88 -111.839 -68.5993 -103.095C-51.4812 -100.175 -34.1236 -97.2153 -16.6225 -94.3465C53.2406 -82.8943 125.315 -72.9104 193.149 -72.9104C327.783 -72.9104 446.715 -6.20726 532.036 88.4328C617.374 183.091 668.913 305.511 668.913 416.613Z" stroke="#3D0C02" stroke-opacity="0.5" stroke-width="4"/>
<path d="M522.762 413.281C522.762 426.219 520.267 436.362 515.777 444.272C511.295 452.166 504.753 457.967 496.429 462.117C479.671 470.474 455.782 472.101 427.472 470.39C404.001 468.971 377.778 465.284 350.467 461.444C344.902 460.662 339.292 459.873 333.651 459.096C300.382 454.512 266.082 450.339 233.927 450.339C170.659 450.339 115.283 416.846 75.6614 370.088C36.0256 323.313 12.3571 263.49 12.3571 211.269C12.3571 198.323 14.8169 188.326 19.2319 180.668C23.6341 173.032 30.0604 167.581 38.2504 163.84C54.7601 156.299 78.3325 155.75 106.358 158.563C127.32 160.668 150.508 164.618 174.754 168.748C182.858 170.129 191.08 171.529 199.377 172.888C232.43 178.3 266.595 183.03 298.772 183.03C362.095 183.03 418.084 214.37 458.289 258.919C498.511 303.487 522.762 361.088 522.762 413.281Z" stroke="#3D0C02" stroke-opacity="0.5" stroke-width="4"/>
<path d="M522.762 424.361C522.762 434.852 520.74 443.046 517.122 449.419C513.514 455.776 508.245 460.452 501.524 463.804C487.972 470.563 468.605 471.897 445.559 470.504C426.463 469.349 405.127 466.349 382.887 463.222C378.354 462.584 373.784 461.942 369.187 461.308C342.096 457.575 314.142 454.172 287.93 454.172C236.547 454.172 191.55 426.966 159.335 388.942C127.106 350.901 107.873 302.26 107.873 259.829C107.873 249.331 109.867 241.257 113.422 235.091C116.963 228.947 122.133 224.556 128.741 221.538C142.087 215.441 161.194 214.98 184.011 217.272C201.067 218.984 219.931 222.198 239.671 225.561C246.273 226.686 252.972 227.828 259.735 228.935C286.654 233.344 314.499 237.201 340.735 237.201C392.171 237.201 437.67 262.663 470.356 298.887C503.059 335.129 522.762 381.958 522.762 424.361Z" stroke="#3D0C02" stroke-opacity="0.5" stroke-width="4"/>
<path d="M522.762 434.314C522.762 442.606 521.161 449.049 518.322 454.041C515.493 459.018 511.36 462.684 506.068 465.319C495.373 470.644 480.037 471.714 461.685 470.606C446.488 469.689 429.509 467.305 411.791 464.818C408.178 464.311 404.535 463.799 400.87 463.295C379.286 460.326 356.991 457.616 336.077 457.616C295.29 457.616 259.545 436.055 233.934 405.877C208.309 375.682 193.032 337.086 193.032 303.451C193.032 295.152 194.611 288.807 197.397 283.981C200.171 279.177 204.221 275.739 209.419 273.368C219.945 268.567 235.071 268.187 253.244 270.009C266.818 271.37 281.827 273.923 297.55 276.597C302.812 277.492 308.154 278.401 313.549 279.283C334.998 282.79 357.21 285.862 378.147 285.862C418.988 285.862 455.134 306.046 481.116 334.792C507.114 363.556 522.762 400.707 522.762 434.314Z" stroke="#3D0C02" stroke-opacity="0.5" stroke-width="4"/>
</g>
</g>
<path fill-rule="evenodd" clip-rule="evenodd" d="M186.859 58H131.793V67.4941H123.249V74.6146H116.603V81.7352H109.957V92.2842H102.362V186.698H109.957V213.07H117.078V236.541H116.603V244.453H123.249V252.101H212.018V244.453H217.24V236.805H226.259V228.893H196.353V220.982H166.921V213.07H196.353V205.158H226.259V82.5264H186.859V58ZM212.018 131.579H131.793V164.545H212.018V131.579ZM186.859 123.931V107.053H152.68V123.931H186.859Z" fill="#3D0C02"/>
<path d="M114.941 268.716V280.056H160.276V268.716H114.941Z" fill="#3D0C02"/>
<rect x="129" y="130.222" width="84" height="35.5556" fill="#3D0C02"/>
<rect x="185.198" y="140.282" width="14.7158" height="16.8784" fill="black"/>
<rect x="185.198" y="140.282" width="7.35791" height="8.43918" fill="#D9D9D9"/>
<rect x="142.949" y="140.282" width="14.7158" height="16.8784" fill="black"/>
<rect x="142.949" y="140.282" width="7.35791" height="8.43918" fill="#D9D9D9"/>
<rect x="190.182" y="62.7471" width="27.7702" height="15.296" fill="#212529"/>
<rect x="132" y="58" width="55" height="44.4444" fill="#212529"/>
<rect x="171" y="82.4445" width="55" height="20" fill="#212529"/>
<rect x="123" y="68" width="9" height="20" fill="#212529"/>
<rect x="116" y="74.6667" width="7" height="13.3333" fill="#212529"/>
<rect x="110" y="81.3333" width="7" height="6.66667" fill="#212529"/>
<rect x="102" y="92.4445" width="9" height="41.1111" fill="#212529"/>
<rect x="110" y="88" width="22" height="32.2222" fill="#212529"/>
<rect x="212.73" y="202.257" width="13.5291" height="30.0646" fill="white"/>
<rect x="202.761" y="202.257" width="23.4978" height="30.0646" fill="#3D0C02"/>
<rect x="148" y="104.667" width="46" height="20" fill="#3D0C02"/>
<rect x="150.307" y="202.257" width="52.4548" height="30.0646" fill="#F7DEA5"/>
<rect x="159.801" y="214.652" width="33.4666" height="5.27449" fill="black"/>
<rect x="121" y="169.111" width="104" height="67.7778" fill="black"/>
<rect x="102" y="169.111" width="19" height="1.11111" fill="#D9D9D9"/>
<rect x="121" y="180.222" width="104" height="1.11111" fill="#161515"/>
<rect x="121" y="191.333" width="104" height="1.11111" fill="#161515"/>
<rect x="121" y="202.444" width="104" height="1.11111" fill="#161515"/>
<rect x="121" y="213.556" width="104" height="1.11111" fill="#161515"/>
<rect x="121" y="224.667" width="104" height="1.11111" fill="#161515"/>
<rect width="4" height="1.11111" transform="matrix(1 0 0 -1 117 236.889)" fill="#D9D9D9"/>
<rect x="123" y="251.333" width="37" height="17.7778" fill="#3D0C02"/>
<rect x="75" y="269.111" width="40" height="11.1111" fill="black"/>
<rect x="160" y="269.111" width="40" height="11.1111" fill="black"/>
</svg>
