<svg width="534" height="650" viewBox="0 0 534 650" fill="none" xmlns="http://www.w3.org/2000/svg">
<rect y="370" width="252" height="280" rx="20" fill="#F1EEEE"/>
<rect x="282" width="252" height="554" rx="20" fill="#F1EEEE"/>
<mask id="mask0_32_51" style="mask-type:alpha" maskUnits="userSpaceOnUse" x="282" y="0" width="252" height="554">
<rect x="282" width="252" height="554" rx="20" fill="#F1EEEE"/>
</mask>
<g mask="url(#mask0_32_51)">
<rect x="-35" y="-4" width="692" height="558" fill="#22CB47"/>
<mask id="mask1_32_51" style="mask-type:alpha" maskUnits="userSpaceOnUse" x="-35" y="-4" width="692" height="558">
<rect x="-35" y="-4" width="692" height="558" fill="#D9D9D9"/>
</mask>
<g mask="url(#mask1_32_51)">
<path d="M654.5 474.354C654.5 508.933 644.134 528.879 627.07 539.799C609.815 550.841 585.226 552.999 556.007 550.733C531.777 548.853 504.705 543.969 476.487 538.877C470.735 537.84 464.936 536.793 459.104 535.762C424.73 529.684 389.261 524.145 356 524.145C290.824 524.145 233.606 479.847 192.567 417.694C151.553 355.579 127 276.046 127 206.492C127 171.89 137.219 152.736 153.973 142.915C170.956 132.961 195.207 132.222 224.142 135.95C245.784 138.739 269.72 143.971 294.767 149.447C303.143 151.278 311.643 153.136 320.224 154.939C354.378 162.116 389.71 168.396 423 168.396C488.24 168.396 546.082 209.845 587.716 269.048C629.335 328.229 654.5 404.821 654.5 474.354Z" stroke="#3D0C02" stroke-opacity="0.5" stroke-width="4"/>
<path d="M655 463.014C655 502.805 643.062 525.84 623.329 538.461C603.406 551.204 575.054 553.676 541.452 551.071C513.581 548.91 482.441 543.294 450.001 537.444C443.391 536.252 436.727 535.05 430.026 533.866C390.51 526.882 349.759 520.522 311.552 520.522C236.483 520.522 170.628 469.529 123.423 398.075C76.2449 326.659 48 235.218 48 155.238C48 115.424 59.7682 93.2898 79.1552 81.9315C98.7709 70.4391 126.739 69.6053 160.01 73.8898C184.903 77.0954 212.437 83.1119 241.235 89.4042C250.862 91.5076 260.629 93.6419 270.487 95.7123C309.746 103.958 350.338 111.168 388.574 111.168C463.707 111.168 530.28 158.877 578.173 226.945C626.049 294.991 655 383.055 655 463.014Z" stroke="#3D0C02" stroke-opacity="0.5" stroke-width="4"/>
<path d="M655 452.556C655 496.968 641.677 522.741 619.595 536.869C597.323 551.12 565.656 553.869 528.197 550.963C497.12 548.553 462.398 542.289 426.243 535.767C418.876 534.438 411.449 533.098 403.982 531.778C359.94 523.992 314.538 516.904 271.976 516.904C188.197 516.904 114.735 459.977 62.1026 380.279C9.49564 300.62 -22 198.625 -22 109.404C-22 64.9686 -8.86743 40.1933 12.838 27.4723C34.7722 14.6173 66.0132 13.6991 103.101 18.4768C130.856 22.0522 161.56 28.7633 193.659 35.7796C204.387 38.1244 215.271 40.5033 226.252 42.8106C270.008 52.0041 315.23 60.0377 357.821 60.0377C441.664 60.0377 515.926 113.294 569.329 189.22C622.716 265.124 655 363.356 655 452.556Z" stroke="#3D0C02" stroke-opacity="0.5" stroke-width="4"/>
<path d="M665 442.098C665 491.13 650.292 519.641 625.861 535.277C601.239 551.035 566.259 554.061 524.941 550.856C490.658 548.196 452.356 541.284 412.484 534.089C404.36 532.623 396.172 531.146 387.939 529.69C339.37 521.101 289.316 513.285 242.399 513.285C149.91 513.285 68.8425 450.426 10.7816 362.484C-47.2536 274.58 -82 162.031 -82 63.5691C-82 14.5133 -67.5031 -12.9033 -43.4791 -26.9869C-19.2266 -41.2045 15.287 -42.2072 56.1919 -36.9363C86.8096 -32.991 120.682 -25.5852 156.084 -17.8451C167.912 -15.2589 179.912 -12.6354 192.018 -10.0912C240.27 0.0497856 290.122 8.90755 337.069 8.90755C429.622 8.90755 511.572 67.711 570.485 151.495C629.383 235.257 665 343.656 665 442.098Z" stroke="#3D0C02" stroke-opacity="0.5" stroke-width="4"/>
<path d="M698 458.093C698 511.376 682.007 542.405 655.394 559.428C628.59 576.573 590.533 579.855 545.632 576.374C508.373 573.485 466.744 565.977 423.421 558.163C414.595 556.571 405.699 554.966 396.755 553.386C343.983 544.059 289.61 535.573 238.649 535.573C138.072 535.573 49.9416 467.254 -13.1596 371.728C-76.2353 276.24 -114 153.981 -114 47.018C-114 -6.28827 -98.2367 -36.1347 -72.0599 -51.4723C-45.6544 -66.944 -8.10152 -68.0242 36.3479 -62.2996C69.6239 -58.014 106.439 -49.9691 144.907 -41.563C157.758 -38.7547 170.793 -35.9062 183.943 -33.144C236.37 -22.1314 290.522 -12.5154 341.513 -12.5154C442.154 -12.5154 531.243 51.3923 595.274 142.405C659.289 233.396 698 351.15 698 458.093Z" stroke="#3D0C02" stroke-opacity="0.5" stroke-width="4"/>
<path d="M731 474.993C731 532.619 713.701 566.222 684.873 584.662C655.855 603.224 614.673 606.767 566.134 603.003C525.852 599.88 480.847 591.763 434.02 583.317C424.481 581.596 414.866 579.862 405.2 578.154C348.159 568.072 289.402 558.903 234.334 558.903C125.544 558.903 30.2427 485.006 -37.9766 381.73C-106.17 278.493 -147 146.314 -147 30.664C-147 -26.9855 -129.95 -59.3147 -101.588 -75.9333C-72.9962 -92.686 -32.3576 -93.8456 15.6908 -87.6573C51.6659 -83.0241 91.4686 -74.3262 133.05 -65.2396C146.939 -62.2044 161.027 -59.1259 175.236 -56.1411C231.902 -44.2379 290.42 -33.8472 345.517 -33.8472C454.371 -33.8472 550.709 35.2752 619.935 133.674C689.146 232.052 731 359.364 731 474.993Z" stroke="#3D0C02" stroke-opacity="0.5" stroke-width="4"/>
<path d="M781 490.084C781 551.868 762.455 587.935 731.512 607.732C700.38 627.651 656.215 631.443 604.204 627.41C561.037 624.062 512.807 615.361 462.636 606.31C452.416 604.466 442.116 602.608 431.761 600.777C370.646 589.973 307.702 580.15 248.715 580.15C132.086 580.15 29.9393 500.913 -43.1655 390.217C-116.245 279.561 -160 137.882 -160 13.9158C-160 -47.8923 -141.723 -82.5985 -111.273 -100.444C-80.5951 -118.423 -37.0112 -119.658 14.4727 -113.026C53.024 -108.06 95.6786 -98.7369 140.232 -88.9988C155.112 -85.7464 170.204 -82.4477 185.426 -79.2496C246.138 -66.4937 308.823 -55.3613 367.84 -55.3613C484.533 -55.3613 587.79 18.7537 661.976 124.225C736.146 229.674 781 366.137 781 490.084Z" stroke="#3D0C02" stroke-opacity="0.5" stroke-width="4"/>
<path d="M654 486.372C654 515.351 645.307 531.98 631.078 541.073C616.659 550.289 596.07 552.111 571.508 550.209C551.147 548.631 528.399 544.532 504.667 540.255C499.829 539.383 494.95 538.504 490.041 537.637C461.132 532.532 431.278 527.875 403.275 527.875C348.612 527.875 300.576 490.766 266.09 438.602C231.629 386.477 211 319.733 211 261.378C211 232.376 219.572 216.422 233.527 208.252C247.711 199.948 268.012 199.312 292.34 202.443C310.526 204.783 330.637 209.174 351.698 213.772C358.745 215.311 365.898 216.873 373.121 218.389C401.848 224.418 431.59 229.699 459.623 229.699C514.349 229.699 562.911 264.427 597.892 314.108C632.858 363.767 654 428.037 654 486.372Z" stroke="#3D0C02" stroke-opacity="0.5" stroke-width="4"/>
<path d="M654 498.713C654 522.24 646.948 535.638 635.506 542.953C623.872 550.389 607.213 551.884 587.225 550.335C570.666 549.052 552.164 545.718 532.839 542.235C528.897 541.524 524.922 540.808 520.922 540.101C497.38 535.943 473.041 532.144 450.201 532.144C405.867 532.144 366.849 502.037 338.799 459.601C310.774 417.204 294 362.914 294 315.463C294 291.913 300.954 279.076 312.16 272.514C323.595 265.818 340.016 265.282 359.818 267.83C374.609 269.734 390.963 273.305 408.109 277.049C413.85 278.303 419.68 279.576 425.571 280.813C448.966 285.724 473.218 290.032 496.087 290.032C540.485 290.032 579.931 318.214 608.378 358.623C636.81 399.01 654 451.282 654 498.713Z" stroke="#3D0C02" stroke-opacity="0.5" stroke-width="4"/>
<path d="M654 509.799C654 528.426 648.413 538.922 639.454 544.64C630.304 550.479 617.147 551.68 601.238 550.449C588.067 549.431 573.352 546.783 557.955 544.013C554.813 543.447 551.644 542.877 548.453 542.314C529.697 539.007 510.275 535.979 492.04 535.979C456.912 535.979 425.934 512.16 403.623 478.464C381.338 444.805 368 401.703 368 364.047C368 345.397 373.511 335.359 382.266 330.241C391.251 324.989 404.213 324.542 419.979 326.568C431.745 328.08 444.748 330.915 458.403 333.891C462.981 334.889 467.632 335.903 472.333 336.889C490.976 340.795 510.332 344.23 528.596 344.23C563.788 344.23 595.106 366.534 617.728 398.613C640.334 430.67 654 472.164 654 509.799Z" stroke="#3D0C02" stroke-opacity="0.5" stroke-width="4"/>
<path d="M655 520.534C655 534.912 650.699 542.889 643.921 547.219C636.952 551.671 626.873 552.617 614.547 551.662C604.353 550.873 592.963 548.821 581.018 546.67C578.579 546.23 576.116 545.787 573.636 545.349C559.084 542.78 543.98 540.422 529.789 540.422C502.75 540.422 478.835 522.063 461.565 495.95C444.319 469.876 434 436.483 434 407.329C434 392.928 438.245 385.321 444.847 381.457C451.679 377.459 461.601 377.09 473.823 378.662C482.93 379.833 492.991 382.029 503.58 384.34C507.135 385.116 510.75 385.904 514.408 386.672C528.875 389.707 543.932 392.384 558.152 392.384C585.255 392.384 609.434 409.582 626.939 434.432C644.429 459.261 655 491.4 655 520.534Z" stroke="#3D0C02" stroke-opacity="0.5" stroke-width="4"/>
</g>
</g>
<mask id="mask2_32_51" style="mask-type:alpha" maskUnits="userSpaceOnUse" x="0" y="370" width="252" height="280">
<rect y="370" width="252" height="280" rx="20" fill="#F1EEEE"/>
</mask>
<g mask="url(#mask2_32_51)">
<rect x="-167" y="340" width="692" height="501" fill="#0000FF" fill-opacity="0.65"/>
<mask id="mask3_32_51" style="mask-type:alpha" maskUnits="userSpaceOnUse" x="-167" y="340" width="692" height="501">
<rect x="-167" y="340" width="692" height="501" fill="#D9D9D9"/>
</mask>
<g mask="url(#mask3_32_51)">
<path d="M522.5 769.49C522.5 800.403 512.2 818.232 495.151 828.028C477.865 837.96 453.227 839.898 423.991 837.862C399.75 836.173 372.666 831.786 344.448 827.215C338.698 826.283 332.9 825.344 327.069 824.418C292.695 818.961 257.241 813.99 224 813.99C158.725 813.99 101.505 774.167 60.5091 718.422C19.5196 662.685 -5 591.344 -5 528.99C-5 498.059 5.15046 480.94 21.8932 472.129C38.9153 463.17 63.2212 462.511 92.1681 465.86C113.818 468.365 137.766 473.065 162.816 477.982C171.19 479.625 179.688 481.293 188.264 482.911C222.417 489.355 257.732 494.99 291 494.99C356.335 494.99 414.184 532.253 455.778 585.356C497.372 638.461 522.5 707.16 522.5 769.49Z" stroke="#3D0C02" stroke-opacity="0.5" stroke-width="4"/>
<path d="M523 759.308C523 794.901 511.128 815.504 491.411 826.827C471.456 838.287 443.055 840.505 409.436 838.165C381.554 836.224 350.402 831.18 317.963 825.927C311.353 824.857 304.69 823.778 297.991 822.715C258.475 816.445 217.74 810.737 179.552 810.737C104.384 810.737 38.5262 764.903 -8.63435 700.807C-55.7888 636.719 -84 554.687 -84 482.972C-84 447.361 -72.3006 427.566 -52.9248 417.374C-33.2693 407.035 -5.24635 406.291 28.0358 410.139C52.9373 413.018 80.4839 418.422 109.284 424.073C118.909 425.961 128.674 427.877 138.527 429.735C177.786 437.138 218.36 443.608 256.574 443.608C331.802 443.608 398.382 486.491 446.234 547.554C494.087 608.618 523 687.617 523 759.308Z" stroke="#3D0C02" stroke-opacity="0.5" stroke-width="4"/>
<path d="M523 749.919C523 789.66 509.743 812.721 487.677 825.397C465.372 838.21 433.657 840.678 396.181 838.069C365.093 835.904 330.36 830.278 294.204 824.422C286.838 823.228 279.413 822.026 271.948 820.841C227.905 813.85 182.518 807.489 139.976 807.489C56.0975 807.489 -17.3663 756.327 -69.9552 684.829C-122.538 613.34 -154 521.831 -154 441.82C-154 402.059 -140.936 379.894 -119.242 368.478C-97.2681 356.915 -65.9726 356.096 -28.8733 360.387C-1.10912 363.598 29.6062 369.626 61.7083 375.926C72.4344 378.031 83.3152 380.166 94.2926 382.237C138.048 390.491 183.252 397.7 225.821 397.7C309.759 397.7 384.028 445.564 437.39 513.683C490.754 581.802 523 669.93 523 749.919Z" stroke="#3D0C02" stroke-opacity="0.5" stroke-width="4"/>
<path d="M533 740.529C533 784.419 518.358 809.938 493.942 823.968C469.289 838.134 434.26 840.851 392.925 837.972C358.631 835.584 320.316 829.376 280.444 822.915C272.322 821.599 264.135 820.273 255.904 818.966C207.335 811.255 157.297 804.24 110.399 804.24C17.8108 804.24 -63.2589 747.751 -121.276 668.852C-179.287 589.961 -214 488.976 -214 400.667C-214 356.758 -199.572 332.221 -175.559 319.582C-151.267 306.796 -116.699 305.9 -75.7824 310.634C-45.1556 314.177 -11.2715 320.829 24.1327 327.779C35.9598 330.1 47.9565 332.455 60.0581 334.739C108.309 343.844 158.145 351.793 205.069 351.793C297.717 351.793 379.673 404.637 438.547 479.811C497.42 554.986 533 652.243 533 740.529Z" stroke="#3D0C02" stroke-opacity="0.5" stroke-width="4"/>
<path d="M566 754.89C566 802.597 550.073 830.377 523.475 845.652C496.64 861.064 458.534 864.01 413.616 860.883C376.346 858.289 334.705 851.546 291.383 844.53C282.557 843.101 273.663 841.66 264.721 840.241C211.948 831.867 157.591 824.251 106.649 824.251C5.9724 824.251 -82.1598 762.861 -145.217 677.152C-208.269 591.451 -246 481.748 -246 385.806C-246 338.081 -230.305 311.363 -204.14 297.598C-177.695 283.686 -140.087 282.72 -95.6263 287.862C-62.3414 291.71 -25.5148 298.936 12.9556 306.484C25.8051 309.005 38.838 311.562 51.9836 314.041C104.41 323.929 158.545 332.559 209.513 332.559C310.25 332.559 399.345 389.986 463.335 471.65C527.326 553.315 566 658.972 566 754.89Z" stroke="#3D0C02" stroke-opacity="0.5" stroke-width="4"/>
<path d="M599 770.064C599 821.67 581.767 851.761 552.954 868.308C523.904 884.993 482.674 888.173 434.118 884.793C393.825 881.988 348.807 874.697 301.979 867.114C292.442 865.569 282.829 864.013 273.165 862.479C216.124 853.427 157.382 845.198 102.334 845.198C-6.5553 845.198 -101.859 778.799 -170.034 686.132C-238.204 593.474 -279 474.864 -279 371.123C-279 319.498 -262.019 290.551 -233.668 275.635C-205.036 260.573 -164.343 259.537 -116.283 265.094C-80.2994 269.255 -40.485 277.067 1.09885 285.226C14.9865 287.95 29.0714 290.714 43.2769 293.393C99.9422 304.08 158.443 313.406 213.517 313.406C322.467 313.406 418.811 375.515 487.997 463.811C557.183 552.108 599 666.346 599 770.064Z" stroke="#3D0C02" stroke-opacity="0.5" stroke-width="4"/>
<path d="M649 783.613C649 838.953 630.521 871.256 599.594 889.022C568.429 906.924 524.216 910.329 472.188 906.706C429.01 903.699 380.769 895.885 330.597 887.759C320.378 886.104 310.079 884.435 299.726 882.792C238.611 873.092 175.683 864.274 116.715 864.274C-0.0133667 864.274 -102.162 793.081 -175.223 693.752C-248.278 594.432 -292 467.294 -292 356.086C-292 300.727 -273.791 269.645 -243.353 253.629C-212.635 237.466 -168.997 236.361 -117.502 242.317C-78.9412 246.777 -36.2749 255.15 8.28088 263.894C23.1594 266.813 38.2486 269.775 53.466 272.645C114.178 284.098 176.846 294.09 235.84 294.09C352.629 294.09 455.892 360.681 530.037 455.327C604.183 549.974 649 672.428 649 783.613Z" stroke="#3D0C02" stroke-opacity="0.5" stroke-width="4"/>
<path d="M522 780.281C522 806.165 513.373 821.016 499.16 829.172C484.709 837.465 464.071 839.101 439.492 837.391C419.121 835.974 396.36 832.291 372.627 828.452C367.79 827.669 362.913 826.88 358.007 826.102C329.097 821.518 299.258 817.339 271.275 817.339C216.513 817.339 168.474 783.97 134.032 737.195C99.5951 690.427 79 630.569 79 578.269C79 552.366 87.5028 538.121 101.447 530.791C115.671 523.315 136.026 522.748 160.366 525.56C178.561 527.662 198.683 531.607 219.747 535.736C226.792 537.117 233.943 538.519 241.162 539.88C269.887 545.293 299.613 550.03 327.623 550.03C382.445 550.03 431.013 581.259 465.954 625.813C500.896 670.369 522 728.005 522 780.281Z" stroke="#3D0C02" stroke-opacity="0.5" stroke-width="4"/>
<path d="M522 791.361C522 812.35 515.015 824.301 503.587 830.859C491.922 837.555 475.214 838.897 455.21 837.505C438.639 836.352 420.125 833.356 400.8 830.229C396.859 829.591 392.885 828.948 388.887 828.314C365.345 824.581 341.021 821.172 318.201 821.172C273.768 821.172 234.747 794.09 206.741 756.049C178.741 718.015 162 669.339 162 626.829C162 605.821 168.885 594.374 180.08 588.489C191.555 582.456 208.03 581.979 227.843 584.268C242.644 585.979 259.009 589.187 276.157 592.549C281.897 593.675 287.725 594.817 293.611 595.927C317.006 600.336 341.24 604.201 364.087 604.201C408.58 604.201 448.032 629.552 476.44 665.781C504.848 702.012 522 748.875 522 791.361Z" stroke="#3D0C02" stroke-opacity="0.5" stroke-width="4"/>
<path d="M522 801.314C522 817.905 516.48 827.25 507.536 832.374C498.354 837.635 485.148 838.713 469.222 837.607C456.041 836.692 441.313 834.313 425.917 831.825C422.776 831.318 419.607 830.806 416.418 830.301C397.662 827.332 378.255 824.616 360.04 824.616C324.812 824.616 293.832 803.179 271.565 772.984C249.304 742.797 236 704.165 236 670.451C236 653.842 241.442 644.908 250.186 640.319C259.211 635.583 272.227 635.186 288.005 637.006C299.779 638.364 312.795 640.912 326.452 643.585C331.028 644.481 335.676 645.391 340.374 646.275C359.015 649.782 378.355 652.862 396.596 652.862C431.884 652.862 463.208 672.935 485.789 701.686C508.372 730.438 522 767.624 522 801.314Z" stroke="#3D0C02" stroke-opacity="0.5" stroke-width="4"/>
</g>
</g>
<rect y="60" width="252" height="280" rx="20" fill="#F1EEEE"/>
<mask id="mask4_32_51" style="mask-type:alpha" maskUnits="userSpaceOnUse" x="0" y="60" width="252" height="280">
<rect y="60" width="252" height="280" rx="20" fill="#F1EEEE"/>
</mask>
<g mask="url(#mask4_32_51)">
<rect x="-235" y="33" width="692" height="501" fill="#F7DEA5"/>
<mask id="mask5_32_51" style="mask-type:alpha" maskUnits="userSpaceOnUse" x="-235" y="33" width="692" height="501">
<rect x="-235" y="33" width="692" height="501" fill="#D9D9D9"/>
</mask>
<g mask="url(#mask5_32_51)">
<path d="M454.5 462.49C454.5 493.403 444.2 511.232 427.151 521.028C409.865 530.96 385.227 532.898 355.991 530.862C331.75 529.173 304.666 524.786 276.448 520.215C270.698 519.283 264.9 518.344 259.069 517.418C224.695 511.961 189.241 506.99 156 506.99C90.7248 506.99 33.5049 467.167 -7.49087 411.422C-48.4804 355.685 -73 284.344 -73 221.99C-73 191.059 -62.8495 173.94 -46.1068 165.129C-29.0847 156.17 -4.77885 155.511 24.1681 158.86C45.8184 161.365 69.766 166.065 94.8156 170.982C103.19 172.625 111.688 174.293 120.264 175.911C154.417 182.355 189.732 187.99 223 187.99C288.335 187.99 346.184 225.253 387.778 278.356C429.372 331.461 454.5 400.16 454.5 462.49Z" stroke="#3D0C02" stroke-opacity="0.5" stroke-width="4"/>
<path d="M455 452.308C455 487.901 443.128 508.504 423.411 519.827C403.456 531.287 375.055 533.505 341.436 531.165C313.554 529.224 282.402 524.18 249.963 518.927C243.353 517.857 236.69 516.778 229.991 515.715C190.475 509.445 149.74 503.737 111.552 503.737C36.3842 503.737 -29.4738 457.903 -76.6344 393.807C-123.789 329.719 -152 247.687 -152 175.972C-152 140.361 -140.301 120.566 -120.925 110.374C-101.269 100.035 -73.2464 99.2909 -39.9642 103.139C-15.0627 106.018 12.4839 111.422 41.2838 117.073C50.9088 118.961 60.6739 120.877 70.527 122.735C109.786 130.138 150.36 136.608 188.574 136.608C263.802 136.608 330.382 179.491 378.234 240.554C426.087 301.618 455 380.617 455 452.308Z" stroke="#3D0C02" stroke-opacity="0.5" stroke-width="4"/>
<path d="M455 442.919C455 482.66 441.743 505.721 419.677 518.397C397.372 531.21 365.657 533.678 328.181 531.069C297.093 528.904 262.36 523.278 226.204 517.422C218.838 516.228 211.413 515.026 203.948 513.841C159.905 506.85 114.518 500.489 71.9756 500.489C-11.9025 500.489 -85.3663 449.327 -137.955 377.829C-190.538 306.34 -222 214.831 -222 134.82C-222 95.0593 -208.936 72.8937 -187.242 61.4781C-165.268 49.9154 -133.973 49.0955 -96.8733 53.3865C-69.1091 56.5978 -38.3938 62.6257 -6.29172 68.9257C4.43436 71.0306 15.3152 73.166 26.2926 75.2368C70.0477 83.4911 115.252 90.7005 157.821 90.7005C241.759 90.7005 316.028 138.564 369.39 206.683C422.754 274.802 455 362.93 455 442.919Z" stroke="#3D0C02" stroke-opacity="0.5" stroke-width="4"/>
<path d="M465 433.529C465 477.419 450.358 502.938 425.942 516.968C401.289 531.134 366.26 533.851 324.925 530.972C290.631 528.584 252.316 522.376 212.444 515.915C204.322 514.599 196.135 513.273 187.904 511.966C139.335 504.255 89.2967 497.24 42.3989 497.24C-50.1892 497.24 -131.259 440.751 -189.276 361.852C-247.287 282.961 -282 181.976 -282 93.6669C-282 49.7579 -267.572 25.221 -243.559 12.5819C-219.267 -0.20424 -184.699 -1.09989 -143.782 3.63391C-113.156 7.17725 -79.2715 13.8288 -43.8673 20.7788C-32.0402 23.1005 -20.0435 25.4555 -7.94186 27.739C40.3094 36.8439 90.1445 44.7933 137.069 44.7933C229.717 44.7933 311.673 97.6375 370.547 172.811C429.42 247.986 465 345.243 465 433.529Z" stroke="#3D0C02" stroke-opacity="0.5" stroke-width="4"/>
<path d="M498 447.89C498 495.597 482.073 523.377 455.475 538.652C428.64 554.064 390.534 557.01 345.616 553.883C308.346 551.289 266.705 544.546 223.383 537.53C214.557 536.101 205.663 534.66 196.721 533.241C143.948 524.867 89.5909 517.251 38.6491 517.251C-62.0276 517.251 -150.16 455.861 -213.217 370.152C-276.269 284.451 -314 174.748 -314 78.8065C-314 31.0814 -298.305 4.36271 -272.14 -9.40229C-245.695 -23.3144 -208.087 -24.2797 -163.626 -19.1385C-130.341 -15.2896 -93.5148 -8.0642 -55.0444 -0.516281C-42.1949 2.0048 -29.162 4.56187 -16.0164 7.04111C36.4097 16.9286 90.5446 25.5587 141.513 25.5587C242.25 25.5587 331.345 82.9858 395.335 164.65C459.326 246.315 498 351.972 498 447.89Z" stroke="#3D0C02" stroke-opacity="0.5" stroke-width="4"/>
<path d="M531 463.064C531 514.67 513.767 544.761 484.954 561.308C455.904 577.993 414.674 581.173 366.118 577.793C325.825 574.988 280.807 567.697 233.979 560.114C224.442 558.569 214.829 557.013 205.165 555.479C148.124 546.427 89.382 538.198 34.334 538.198C-74.5553 538.198 -169.859 471.799 -238.034 379.132C-306.204 286.474 -347 167.864 -347 64.123C-347 12.4984 -330.019 -16.4494 -301.668 -31.3646C-273.036 -46.4268 -232.343 -47.4633 -184.283 -41.9059C-148.299 -37.7449 -108.485 -29.9332 -66.9012 -21.7743C-53.0135 -19.0495 -38.9286 -16.286 -24.7231 -13.6068C31.9422 -2.91967 90.443 6.40601 145.517 6.40601C254.467 6.40601 350.811 68.515 419.997 156.811C489.183 245.108 531 359.346 531 463.064Z" stroke="#3D0C02" stroke-opacity="0.5" stroke-width="4"/>
<path d="M581 476.613C581 531.953 562.521 564.256 531.594 582.022C500.429 599.924 456.216 603.329 404.188 599.706C361.01 596.699 312.769 588.885 262.597 580.759C252.378 579.104 242.079 577.435 231.726 575.792C170.611 566.092 107.683 557.274 48.715 557.274C-68.0134 557.274 -170.162 486.081 -243.223 386.752C-316.278 287.432 -360 160.294 -360 49.0857C-360 -6.2728 -341.791 -37.3549 -311.353 -53.3711C-280.635 -69.5345 -236.997 -70.6392 -185.502 -64.6833C-146.941 -60.2234 -104.275 -51.8503 -59.7191 -43.1065C-44.8406 -40.1866 -29.7514 -37.2255 -14.534 -34.3548C46.1777 -22.9021 108.846 -12.9104 167.84 -12.9104C284.629 -12.9104 387.892 53.6812 462.037 148.327C536.183 242.974 581 365.428 581 476.613Z" stroke="#3D0C02" stroke-opacity="0.5" stroke-width="4"/>
<path d="M454 473.281C454 499.165 445.373 514.016 431.16 522.172C416.709 530.465 396.071 532.101 371.492 530.391C351.121 528.974 328.36 525.291 304.627 521.452C299.79 520.669 294.913 519.88 290.007 519.102C261.097 514.518 231.258 510.339 203.275 510.339C148.513 510.339 100.474 476.97 66.0317 430.195C31.5951 383.427 11 323.569 11 271.269C11 245.366 19.5028 231.121 33.4468 223.791C47.6707 216.315 68.0265 215.748 92.3657 218.56C110.561 220.662 130.683 224.607 151.747 228.736C158.792 230.117 165.943 231.519 173.162 232.88C201.887 238.293 231.613 243.03 259.623 243.03C314.445 243.03 363.013 274.259 397.954 318.813C432.896 363.369 454 421.005 454 473.281Z" stroke="#3D0C02" stroke-opacity="0.5" stroke-width="4"/>
<path d="M454 484.361C454 505.35 447.015 517.301 435.587 523.859C423.922 530.555 407.214 531.897 387.21 530.505C370.639 529.352 352.125 526.356 332.8 523.229C328.859 522.591 324.885 521.948 320.887 521.314C297.345 517.581 273.021 514.172 250.201 514.172C205.768 514.172 166.747 487.09 138.741 449.049C110.741 411.015 94 362.339 94 319.829C94 298.821 100.885 287.374 112.08 281.489C123.555 275.456 140.03 274.979 159.843 277.268C174.644 278.979 191.009 282.187 208.157 285.549C213.897 286.675 219.725 287.817 225.611 288.927C249.006 293.336 273.24 297.201 296.087 297.201C340.58 297.201 380.032 322.552 408.44 358.781C436.848 395.012 454 441.875 454 484.361Z" stroke="#3D0C02" stroke-opacity="0.5" stroke-width="4"/>
<path d="M454 494.314C454 510.905 448.48 520.25 439.536 525.374C430.354 530.635 417.148 531.713 401.222 530.607C388.041 529.692 373.313 527.313 357.917 524.825C354.776 524.318 351.607 523.806 348.418 523.301C329.662 520.332 310.255 517.616 292.04 517.616C256.812 517.616 225.832 496.179 203.565 465.984C181.304 435.797 168 397.165 168 363.451C168 346.842 173.442 337.908 182.186 333.319C191.211 328.583 204.227 328.186 220.005 330.006C231.779 331.364 244.795 333.912 258.452 336.585C263.028 337.481 267.676 338.391 272.374 339.275C291.015 342.782 310.355 345.862 328.596 345.862C363.884 345.862 395.208 365.935 417.789 394.686C440.372 423.438 454 460.624 454 494.314Z" stroke="#3D0C02" stroke-opacity="0.5" stroke-width="4"/>
</g>
</g>
<path fill-rule="evenodd" clip-rule="evenodd" d="M147.859 140H92.7933V148.545H84.2487V154.953H77.6028V161.362H70.957V170.856H63.3617V255.828H70.957V279.563H78.0775V300.687H77.6028V307.808H84.2487V314.691H173.018V307.808H178.24V300.925H187.259V293.804H157.353V286.684H127.921V279.563H157.353V272.442H187.259V162.074H147.859V140ZM173.018 206.221H92.7933V235.89H173.018V206.221ZM147.859 199.338V184.147H113.68V199.338H147.859Z" fill="#3D0C02"/>
<path d="M75.9414 329.644V339.85H121.276V329.644H75.9414Z" fill="#3D0C02"/>
<rect x="90" y="205" width="84" height="32" fill="#3D0C02"/>
<rect x="146.198" y="214.054" width="14.7158" height="15.1905" fill="black"/>
<rect x="146.198" y="214.054" width="7.35791" height="7.59526" fill="#D9D9D9"/>
<rect x="103.949" y="214.054" width="14.7158" height="15.1905" fill="black"/>
<rect x="103.949" y="214.054" width="7.35791" height="7.59526" fill="#D9D9D9"/>
<rect x="151.182" y="144.272" width="27.7702" height="13.7664" fill="#212529"/>
<rect x="93" y="140" width="55" height="40" fill="#212529"/>
<rect x="132" y="162" width="55" height="18" fill="#212529"/>
<rect x="84" y="149" width="9" height="18" fill="#212529"/>
<rect x="77" y="155" width="7" height="12" fill="#212529"/>
<rect x="71" y="161" width="7" height="6" fill="#212529"/>
<rect x="63" y="171" width="9" height="37" fill="#212529"/>
<rect x="71" y="167" width="22" height="29" fill="#212529"/>
<rect x="173.73" y="269.832" width="13.5291" height="27.0581" fill="white"/>
<rect x="163.761" y="269.832" width="23.4978" height="27.0581" fill="#3D0C02"/>
<rect x="109" y="182" width="46" height="18" fill="#3D0C02"/>
<rect x="111.307" y="269.832" width="52.4548" height="27.0581" fill="#F7DEA5"/>
<rect x="120.801" y="280.987" width="33.4666" height="4.74704" fill="black"/>
<rect x="82" y="240" width="104" height="61" fill="black"/>
<rect x="63" y="240" width="19" height="1" fill="#D9D9D9"/>
<rect x="82" y="250" width="104" height="1" fill="#161515"/>
<rect x="82" y="260" width="104" height="1" fill="#161515"/>
<rect x="82" y="270" width="104" height="1" fill="#161515"/>
<rect x="82" y="280" width="104" height="1" fill="#161515"/>
<rect x="82" y="290" width="104" height="1" fill="#161515"/>
<rect width="4" height="1" transform="matrix(1 0 0 -1 78 301)" fill="#D9D9D9"/>
<rect x="84" y="314" width="37" height="16" fill="#3D0C02"/>
<rect x="36" y="330" width="40" height="10" fill="black"/>
<rect x="121" y="330" width="40" height="10" fill="black"/>
</svg>
