<svg width="24" height="26" viewBox="0 0 24 26" fill="none" xmlns="http://www.w3.org/2000/svg">
<path fill-rule="evenodd" clip-rule="evenodd" d="M13.9099 0H7.06239V1.08233H5.99985V1.89407H5.17343V2.70581H4.34701V3.9084H3.40253V14.6715H4.34701V17.678H5.23246V20.3537H5.17343V21.2557H5.99985V22.1275H17.0385V21.2557H17.6878V20.3838H18.8094V19.4819H15.0905V18.5799H11.4306V17.678H15.0905V16.776H18.8094V2.79601H13.9099V0ZM17.0385 8.38802H7.06239V12.1461H17.0385V8.38802ZM13.9099 7.51615V5.59201H9.65971V7.51615H13.9099Z" fill="#3D0C02"/>
<path d="M4.96682 24.0216V25.3144H10.6042V24.0216H4.96682Z" fill="#3D0C02"/>
<rect x="6.71503" y="8.23331" width="10.4455" height="4.05333" fill="#3D0C02"/>
<rect x="13.7033" y="9.38013" width="1.82993" height="1.92413" fill="black"/>
<rect x="13.7033" y="9.38013" width="0.914965" height="0.962067" fill="#D9D9D9"/>
<rect x="8.44952" y="9.38013" width="1.82993" height="1.92413" fill="black"/>
<rect x="8.44952" y="9.38013" width="0.914965" height="0.962067" fill="#D9D9D9"/>
<rect x="14.3231" y="0.541168" width="3.45326" height="1.74375" fill="#212529"/>
<rect x="7.08807" width="6.83932" height="5.06667" fill="#212529"/>
<rect x="11.9378" y="2.78665" width="6.83932" height="2.28" fill="#212529"/>
<rect x="5.96893" y="1.14001" width="1.11916" height="2.28" fill="#212529"/>
<rect x="5.09845" y="1.89999" width="0.870459" height="1.52" fill="#212529"/>
<rect x="4.35229" y="2.66" width="0.870459" height="0.76" fill="#212529"/>
<rect x="3.35748" y="3.92667" width="1.11916" height="4.68667" fill="#212529"/>
<rect x="4.35229" y="3.42001" width="2.73573" height="3.67333" fill="#212529"/>
<rect x="17.127" y="16.4453" width="1.68236" height="3.42736" fill="white"/>
<rect x="15.8873" y="16.4453" width="2.92199" height="3.42736" fill="#3D0C02"/>
<rect x="9.07764" y="5.31998" width="5.72016" height="2.28" fill="#3D0C02"/>
<rect x="9.3645" y="16.4453" width="6.52282" height="3.42736" fill="#F7DEA5"/>
<rect x="10.5451" y="17.8584" width="4.16162" height="0.601292" fill="black"/>
<rect x="5.72015" y="12.6667" width="12.9325" height="7.72667" fill="black"/>
<rect x="3.35748" y="12.6667" width="2.36267" height="0.126667" fill="#D9D9D9"/>
<rect x="5.72015" y="13.9333" width="12.9325" height="0.126667" fill="#161515"/>
<rect x="5.72015" y="15.2" width="12.9325" height="0.126667" fill="#161515"/>
<rect x="5.72015" y="16.4667" width="12.9325" height="0.126667" fill="#161515"/>
<rect x="5.72015" y="17.7333" width="12.9325" height="0.126667" fill="#161515"/>
<rect x="5.72015" y="19" width="12.9325" height="0.126667" fill="#161515"/>
<rect width="0.497405" height="0.126667" transform="matrix(1 0 0 -1 5.22272 20.3933)" fill="#D9D9D9"/>
<rect x="5.96893" y="22.04" width="4.60099" height="2.02667" fill="#3D0C02"/>
<rect y="24.0667" width="4.97405" height="1.26667" fill="black"/>
<rect x="10.5699" y="24.0667" width="4.97405" height="1.26667" fill="black"/>
</svg>
