<svg width="35" height="35" viewBox="0 0 35 35" fill="none" xmlns="http://www.w3.org/2000/svg">
<path d="M4.60597 20.3155C3.56617 18.5825 3.56617 16.4175 4.60597 14.6845C4.92327 14.1557 5.44894 13.7852 6.05369 13.6643L8.52269 13.1705C8.66979 13.141 8.80238 13.0622 8.89841 12.9469L13.2125 7.76998C14.3951 6.35092 14.9864 5.64138 15.514 5.83242C16.0417 6.02346 16.0417 6.94707 16.0417 8.79428L16.0417 26.2057C16.0417 28.0529 16.0417 28.9765 15.514 29.1676C14.9864 29.3586 14.3951 28.6491 13.2125 27.23L8.89841 22.0531C8.80238 21.9378 8.66979 21.859 8.52269 21.8295L6.05369 21.3357C5.44894 21.2148 4.92328 20.8443 4.60597 20.3155Z" fill="#2A4157" fill-opacity="0.24" stroke="#222222" stroke-width="1.2"/>
<path d="M22.656 12.344C24.0164 13.7044 24.784 15.5474 24.7916 17.4713C24.7992 19.3952 24.0461 21.2441 22.6964 22.6152" stroke="#222222" stroke-width="1.2" stroke-linecap="round"/>
<path d="M28.6662 9.25041C30.8429 11.4271 32.0711 14.3758 32.0832 17.454C32.0954 20.5323 30.8904 23.4906 28.731 25.6843" stroke="#222222" stroke-width="1.2" stroke-linecap="round"/>
</svg>
